<?xml version="1.0" encoding="UTF-8"?>
<svg version="1.1" xmlns="http://www.w3.org/2000/svg" width="256" height="256">
<path d="M0 0 C2.48401971 2.19740205 4.89434615 4.45199573 7.2890625 6.74609375 C8.02511719 7.41898438 8.76117188 8.091875 9.51953125 8.78515625 C29.7941983 27.94740794 44.01604815 57.18657409 45.46606445 85.16088867 C46.02746282 117.82711614 46.02746282 117.82711614 41.2890625 133.74609375 C41.08539063 134.43477539 40.88171875 135.12345703 40.671875 135.83300781 C36.19454183 150.30833651 28.35837383 166.36090651 18.2890625 177.74609375 C17.6290625 177.74609375 16.9690625 177.74609375 16.2890625 177.74609375 C16.07765625 178.27976563 15.86625 178.8134375 15.6484375 179.36328125 C13.76262898 182.66886515 11.21406987 185.20393904 8.5390625 187.87109375 C7.96631592 188.442229 7.39356934 189.01336426 6.8034668 189.60180664 C0.80544981 195.43382234 -5.7385152 200.15654502 -12.7109375 204.74609375 C-13.50371094 205.29652344 -14.29648438 205.84695312 -15.11328125 206.4140625 C-39.74011563 222.55783969 -74.09047517 227.95243944 -102.7578125 222.43359375 C-104.21960938 222.09328125 -104.21960938 222.09328125 -105.7109375 221.74609375 C-107.48210937 221.34390625 -107.48210937 221.34390625 -109.2890625 220.93359375 C-129.05461913 216.0532094 -145.7714809 207.38363609 -161.7109375 194.74609375 C-162.64808594 194.0396875 -163.58523437 193.33328125 -164.55078125 192.60546875 C-165.62005859 191.68507812 -165.62005859 191.68507812 -166.7109375 190.74609375 C-166.7109375 190.08609375 -166.7109375 189.42609375 -166.7109375 188.74609375 C-167.7009375 188.41609375 -168.6909375 188.08609375 -169.7109375 187.74609375 C-172.29196387 185.30883808 -174.46813226 182.49290016 -176.7109375 179.74609375 C-177.50242187 178.77929688 -178.29390625 177.8125 -179.109375 176.81640625 C-194.73795818 157.33449054 -205.67480599 133.24344012 -205.94921875 107.91796875 C-205.9590126 107.17571045 -205.96880646 106.43345215 -205.97889709 105.66870117 C-206.29623167 75.41626983 -206.29623167 75.41626983 -201.7109375 61.74609375 C-201.50194824 61.08915527 -201.29295898 60.4322168 -201.07763672 59.75537109 C-195.83572929 43.44067043 -187.70167793 28.84906117 -176.7109375 15.74609375 C-176.04320312 14.92625 -175.37546875 14.10640625 -174.6875 13.26171875 C-169.6482889 7.29693826 -163.8801913 2.50474682 -157.7109375 -2.25390625 C-156.85757813 -2.93453125 -156.00421875 -3.61515625 -155.125 -4.31640625 C-110.08504364 -38.94171805 -43.17604939 -35.89709006 0 0 Z " fill="#7C137C" transform="translate(209.7109375,30.25390625)"/>
<path d="M0 0 C-5.71425484 14.41596222 -11.53024649 28.78720491 -17.4375 43.125 C-17.74181946 43.8640155 -18.04613892 44.60303101 -18.35968018 45.36444092 C-19.23772204 47.49588028 -20.1166721 49.6269421 -20.99609375 51.7578125 C-21.25513992 52.38612976 -21.5141861 53.01444702 -21.78108215 53.6618042 C-23.83225 58.62456889 -23.83225 58.62456889 -24.85794067 60.92010498 C-26.62035127 64.87617002 -27.42256793 66.83390821 -26 71 C-25.24851785 72.92771509 -24.49419352 74.85450621 -23.7109375 76.76953125 C-23 79 -23 79 -22.8515625 81.38671875 C-22.56196634 85.77892718 -21.83533924 88.19872843 -18.60546875 91.296875 C-15.60992322 93.4556962 -12.58053449 95.47471404 -9.45654297 97.43945312 C-5.48625561 99.96162335 -1.58905235 102.59253289 2.31982422 105.20849609 C4.45398531 106.63437665 6.59224118 108.05415053 8.73486328 109.46728516 C9.73114746 110.12519043 10.72743164 110.7830957 11.75390625 111.4609375 C12.64408447 112.04665527 13.5342627 112.63237305 14.45141602 113.23583984 C17 115 17 115 19.62304688 117.18481445 C22.75978577 119.58021849 25.02873388 119.56637705 28.9375 119.8125 C41.03940002 120.99310027 51.93718901 126.84718673 60 136 C68.7611594 147.57296007 72.13076607 159.55486165 71 174 C69.27299898 182.55605646 65.94322636 189.84220823 61 197 C60.48566406 197.75152344 59.97132813 198.50304687 59.44140625 199.27734375 C58.96574219 199.84582031 58.49007812 200.41429687 58 201 C57.34 201 56.68 201 56 201 C56 201.66 56 202.32 56 203 C43.20623217 213.04310775 31.14619356 216.13166806 15 215 C6.56572671 213.37624001 -0.24497279 210.2447569 -7 205 C-8.051875 204.236875 -9.10375 203.47375 -10.1875 202.6875 C-18.00823705 195.21435126 -23.23893178 184.67000159 -25 174 C-24.99613281 173.32582031 -24.99226563 172.65164062 -24.98828125 171.95703125 C-25.02642482 164.97675863 -28.71037385 160.99959983 -32.97265625 155.8046875 C-37.09128733 150.74796161 -40.64466837 145.30289136 -44.26855469 139.88720703 C-47.54444624 135.02478043 -50.98992216 130.38822128 -54.69067383 125.83886719 C-56 124 -56 124 -56 122 C-57.093125 122.0825 -58.18625 122.165 -59.3125 122.25 C-67.85553536 122.20471889 -75.52282954 118.44972538 -81.9921875 113.05859375 C-89.71199436 105.14353886 -92.43928287 95.91533117 -92.35913086 85.11083984 C-92.08357365 75.0316718 -88.52272997 68.52106623 -81.65234375 61.2734375 C-77.34555078 57.58190067 -70.89874385 53 -65 53 C-64.61585937 51.77796875 -64.23171875 50.5559375 -63.8359375 49.296875 C-61.78082158 43.13393653 -59.19594399 37.21181065 -56.625 31.25 C-55.67748965 29.04781935 -54.73217432 26.84469296 -53.7890625 24.640625 C-53.32371094 23.55692627 -52.85835937 22.47322754 -52.37890625 21.35668945 C-50.51887592 16.82879338 -48.8984959 12.22147089 -47.31103516 7.59155273 C-45.80485066 4.61424391 -44.84703983 3.9127037 -41.75 2.8125 C-39.84400315 2.47465713 -37.92395613 2.21296621 -36 2 C-34.75863281 1.8040625 -33.51726562 1.608125 -32.23828125 1.40625 C-21.50284775 -0.18802005 -10.83030482 -0.21399066 0 0 Z " fill="#FEFEFE" transform="translate(138,2)"/>
<path d="M0 0 C5.26541317 4.6936036 8.39529266 10.21273355 9.28125 17.2265625 C9.57586498 24.3709758 7.71007615 30.11822673 3.3125 35.75 C-1.8757858 41.2799534 -6.80170625 43.22432707 -14.375 43.5625 C-21.73931835 43.29796481 -27.67013495 41.433707 -32.87890625 36.0625 C-37.63998682 30.00502882 -39.54122697 24.62283822 -39.375 16.9140625 C-38.5459488 10.47164381 -35.4716001 5.04495175 -30.8125 0.5625 C-21.45956079 -6.57900673 -9.57509331 -6.6662042 0 0 Z " fill="#FEFDFE" transform="translate(176,150)"/>
<path d="M0 0 C7.68748469 5.21211462 12.83252287 10.97222289 16.265625 19.63671875 C18.26866818 30.38031399 16.40457006 38.1354207 11.140625 47.57421875 C5.96917025 54.07547615 0.11583226 58.34739985 -8.046875 60.32421875 C-18.00819888 61.44501064 -26.20532725 60.3870901 -34.484375 54.62890625 C-41.01940655 49.31919311 -45.4171162 42.66664745 -47.046875 34.32421875 C-47.92174865 25.47508693 -46.61307386 17.36084083 -41.3984375 9.99609375 C-31.29653042 -1.91445172 -14.74898104 -8.02186946 0 0 Z M-32.5078125 11.47265625 C-37.51081751 17.49149985 -39.93146389 23.73339228 -39.53125 31.58203125 C-38.46237849 37.63322319 -35.77001527 43.12092039 -31.171875 47.26171875 C-23.50587571 52.32127828 -17.25542732 53.48505444 -8.046875 52.32421875 C-1.06235431 50.08253009 3.3068336 45.5538149 6.953125 39.32421875 C10.05087528 32.70629769 9.7947707 26.01693056 7.453125 19.19921875 C4.6974966 13.00387238 0.62583513 8.86830109 -5.6484375 6.23046875 C-15.26624595 3.16638818 -24.99763054 4.24722052 -32.5078125 11.47265625 Z " fill="#690869" transform="translate(176.046875,140.67578125)"/>
<path d="M0 0 C-1.38010632 4.77653817 -2.74396656 9.48131404 -4.6875 14.0625 C-6.90493585 19.92455116 -6.95580783 25.47525963 -4.4375 31.25 C-1.87079691 35.82622152 1.94299314 39.0533529 6.98046875 40.61328125 C13.63753608 41.88803882 18.06983847 40.90694193 24 38 C24.99 37.67 25.98 37.34 27 37 C28.13849783 35.19569565 28.13849783 35.19569565 29 33 C29.31727051 32.27458008 29.63454102 31.54916016 29.96142578 30.80175781 C30.2861084 30.02670898 30.61079102 29.25166016 30.9453125 28.453125 C31.29980469 27.60878906 31.65429688 26.76445313 32.01953125 25.89453125 C32.38433594 25.02183594 32.74914062 24.14914063 33.125 23.25 C33.49753906 22.36183594 33.87007812 21.47367188 34.25390625 20.55859375 C35.1704867 18.37290191 36.08580789 16.18669162 37 14 C40.12513896 17.12513896 39.93808053 20.70691641 40 25 C39.06609575 33.0641891 35.13633446 39.71989826 29 45 C21.83024592 49.79598415 15.51194752 50.79023385 7 50 C-1.7297317 47.89980368 -7.72337966 43.05573295 -12.4375 35.5 C-15.50211372 28.65125456 -15.21440882 20.09997315 -13.1171875 13.01953125 C-10.85496371 8.06810766 -6.18915321 0 0 0 Z " fill="#901B90" transform="translate(68,66)"/>
</svg>
